<svg xmlns="http://www.w3.org/2000/svg" viewBox="0 0 48 48" id="web-development">
  <g>
    <circle cx="19" cy="24" r="6" fill="#00ffc2" opacity=".5"></circle>
    <path fill="#231f20" d="M42,42H8a1,1,0,0,1-1-1V7A1,1,0,0,1,8,6H42a1,1,0,0,1,1,1V41A1,1,0,0,1,42,42ZM9,40H41V8H9Z"></path>
    <circle cx="12" cy="11" r="1" fill="#231f20"></circle>
    <circle cx="16" cy="11" r="1" fill="#231f20"></circle>
    <circle cx="20" cy="11" r="1" fill="#231f20"></circle>
    <path fill="#231f20" d="M22 16H8a1 1 0 0 1 0-2H21.59l3.7-3.71A1 1 0 0 1 26 10H42a1 1 0 0 1 0 2H26.41l-3.7 3.71A1 1 0 0 1 22 16zM19.27 25h-.54A2.74 2.74 0 0 1 16 22.27V19a1 1 0 0 1 1-1h4a1 1 0 0 1 1 1v3.27A2.74 2.74 0 0 1 19.27 25zM18 20v2.27a.73.73 0 0 0 .73.73h.54a.73.73 0 0 0 .73-.73V20zM22 34H16a1 1 0 0 1 0-2h6a1 1 0 0 1 0 2z"></path>
    <path fill="#231f20" d="M23,42H15a1,1,0,0,1-1-1V37a1,1,0,0,1,1-1,1,1,0,0,0,1-1V33a1,1,0,0,1,1-1h4a1,1,0,0,1,1,1v2a.93.93,0,0,0,.29.69A1,1,0,0,0,23,36a1,1,0,0,1,1,1v4A1,1,0,0,1,23,42Zm-7-2h6V37.83A3,3,0,0,1,20,35V34H18v1a3,3,0,0,1-2,2.83Z"></path>
    <path fill="#231f20" d="M19 34a1 1 0 0 1-1-1V24a1 1 0 0 1 2 0v9A1 1 0 0 1 19 34zM32 42H28a1 1 0 0 1-1-1V29.19a6 6 0 0 1 .59-10.69 1 1 0 0 1 1.41.91v4l1 .5 1-.5v-4a1 1 0 0 1 1.41-.91A6 6 0 0 1 33 29.19V41A1 1 0 0 1 32 42zm-3-2h2V28.58a1 1 0 0 1 .6-.92 4 4 0 0 0 1.4-6.3V24a1 1 0 0 1-.55.89l-2 1a1 1 0 0 1-.9 0l-2-1A1 1 0 0 1 27 24V21.36a4 4 0 0 0 1.4 6.3 1 1 0 0 1 .6.92z"></path>
  </g>
</svg>
